<?xml version="1.0" encoding="UTF-8"?>
<svg id="Layer_1" data-name="Layer 1" xmlns="http://www.w3.org/2000/svg" viewBox="0 0 132.2 136.07">
  <defs>
    <style>
      .cls-1 {
        fill: #5900b3;
        stroke-width: 0px;
      }
    </style>
  </defs>
  <path class="cls-1" d="M65.65,66.05S27.13,54.82,27.59,12.18c0,0-.23-10.55-10.77-7.79,0,0-3.97.82-7.37,2.81S2.64,12.35.03,7.47C.03,7.47-1.28,1.62,13.88.69,29.05-.23,61.04-2.82,87.48,14.75c0,0,15.35,10.54,19.42,16.83,0,0-.62-7.55,6.06-8.15,3.47-.31,4.95-.57,5.58-.72.19-.05.36.11.33.3-.12.83.07,2.48,3.77,1.94.21-.03.35.11.3.32-.18.83-.68,2.85-1.69,4.38-.06.09-.11.19-.15.3-.28.79-1.14,4.08,3.01,5.88,4.74,2.06,6.41,2.15,6.06,5.88s1.4,8.91,1.84,10.53c0,0,1.27,5.05-2.76,15.76,0,0-6.8,12.55-13.08,18.04s-13.82,11.81-24.01,16.9c0,0-14.17,7.84-34.05,10.98,0,0,41.28-9.48,48.69-37.22,0,0,.72-5.78,4.36-9.38.71-.7,1.59-1.18,2.54-1.47,1.81-.54,5.37-2.32,4.96-8.03,0,0-2.54-12.48-10.79-20.19,0,0-7.01-8.16-13.98-13.23s-18.3-10.54-26.81-12.68-20.29-4.28-28.85-3.73c0,0,29.54,10.79,30.34,23.33,0,0,1.54,5.32-3.98,14.92,0,0-3.13,5.87-.83,11.92,0,0,.99,4.62,8.32,6.55,0,0,19.91,1.47,23.04,2.36,0,0-25.27.15-33.77,8.26,0,0-11.44,8.21-14.82,19.55,0,0-.8,1.99-1.74,7.91,0,0,7.21-8.63,18.31-10.72.8-.15,1.61-.2,2.43-.16,3.68.19,16.23.48,23.18-3.69,0,0,9.1-6.96,10.3-10.54,0,0-2.79,12.28-18.1,20.74,0,0-16.31,6.52-22.98,8.16,0,0-13.93,5.12-18.3,10.05,0,0-5.42,4.87-7.26,9.4,0,0-.5,3.78-2.04,6.66-1.54,2.88-5.32,3.78-6.42,3.28s-2.34-2.29-1.34-5.22c.99-2.93,3.18-3.73,3.18-3.73,0,0,8.06-5.57,9.5-16.81s4.38-20.84,6.76-23.67c0,0,7.21-13.58,16.61-16.76,0,0,4.26-1.74,7.47-2.79l1.88-.35-2.33-.56Z"/>
</svg>